<svg xmlns="http://www.w3.org/2000/svg" viewBox="0 0 316.58 142.66"><defs><style>.cls-1{fill:#fff;}.cls-2{fill:#1da958;}.cls-3{fill:#e71f61;}.cls-4{fill:#fcbd00;}</style></defs><title>footer_logo</title><g id="Слой_2" data-name="Слой 2"><g id="Layer_1" data-name="Layer 1"><path class="cls-1" d="M276.06,131.64v5.93h7.69v4h-19v-4h7.77v-5.93h-7.77v-3.95h19v3.95Z"/><path class="cls-1" d="M274.31,96.68a9.78,9.78,0,1,1-9.83,9.78A9.56,9.56,0,0,1,274.31,96.68Zm6.22,9.78c0-2.9-1.9-5.82-6.22-5.82s-6.34,3-6.31,5.84,2.08,5.79,6.31,5.79S280.53,109.33,280.53,106.46Z"/><path class="cls-1" d="M273.66,75.09a4.68,4.68,0,0,1,4.33-3c4.14,0,5.76,3.25,5.76,6.69V85H264.69V78.77c0-3.28,1.9-5.87,5.37-5.87a3.92,3.92,0,0,1,3.51,2.19Zm-1.55,3.68a2.09,2.09,0,1,0-4.17,0v2.41h4.17Zm3.31,2.41h4.89V78.77c0-3.93-4.89-3.76-4.89,0Z"/><path class="cls-1" d="M274.31,42.26A9.43,9.43,0,0,1,284.05,52a9.42,9.42,0,0,1-9.74,9.77,9.78,9.78,0,1,1,0-19.55ZM280.53,52c0-2.9-1.9-5.82-6.22-5.82s-6.34,3-6.31,5.84,2.08,5.8,6.31,5.8S280.53,54.91,280.53,52Z"/><path class="cls-1" d="M302.66,128.07a6.51,6.51,0,0,0-2.19,4.9c.08,3.79,3,5.85,6.36,5.85S313,136.74,313,133a6.79,6.79,0,0,0-2.51-5.17l2.08-2.68a9.69,9.69,0,0,1,4,7.85c0,6.31-4.65,9.69-9.75,9.69s-9.93-3.38-9.93-9.69a9.21,9.21,0,0,1,3.55-7.42Z"/><path class="cls-1" d="M297.31,103.15h3.3v4.25h15.64v3.95H300.61v4.28h-3.3Z"/><path class="cls-1" d="M316.25,88.74v3.85h-19v-6.1a6.32,6.32,0,0,1,6.45-6.71c3.22,0,6.33,2.22,6.33,6.69v2.27Zm-12.58-5.07a3,3,0,0,0-3,2.82v2.25h5.9V86.49A2.85,2.85,0,0,0,303.67,83.67Z"/><path class="cls-1" d="M306.81,50.55a9.43,9.43,0,0,1,9.74,9.78,9.41,9.41,0,0,1-9.74,9.77,9.78,9.78,0,1,1,0-19.55ZM313,60.33c0-2.9-1.89-5.82-6.22-5.82s-6.34,3-6.31,5.84,2.08,5.79,6.31,5.79S313,63.2,313,60.33Z"/><path class="cls-1" d="M300.66,28.12v7.29H305V28.23h3.49v7.18h4.25V28.12h3.49v11.1h-19V28.12Z"/><path class="cls-1" d="M297.31,13h7.5l-7.5-6.47V1.88l8.44,7.2,10.5-7.25V6.37l-8,5.6L309.3,13h6.95V17H297.31Z"/><rect class="cls-1" x="260.15" y="13.48" width="28.36" height="2.98" transform="translate(259.35 289.3) rotate(-90)"/><rect class="cls-2" x="107.68" y="13.14" width="18.77" height="50.89"/><rect class="cls-3" x="107.68" y="79.39" width="18.77" height="63.24"/><rect class="cls-4" x="107.68" y="0.79" width="60.48" height="12.35"/><path class="cls-3" d="M147.3,22.32a20.86,20.86,0,1,0,20.86,20.86A20.86,20.86,0,0,0,147.3,22.32Z"/><polygon class="cls-4" points="237.36 0.79 223.18 0.79 186.58 64.03 200.76 64.03 237.36 0.79"/><path class="cls-1" d="M86.76,32.4A17.74,17.74,0,0,0,76.77,0V64.8a17.74,17.74,0,0,0,10-32.4Z"/><polygon class="cls-2" points="33.9 0.79 67.79 64.09 0 64.09 33.9 0.79"/><polygon class="cls-1" points="126.45 111.01 162.16 79.39 162.16 142.66 126.45 111.01"/><polygon class="cls-2" points="176.18 0.79 201.93 37.39 223.08 0.79 176.18 0.79"/><polygon class="cls-2" points="203.87 79.36 237.76 142.66 169.97 142.66 203.87 79.36"/></g></g></svg>