<svg xmlns="http://www.w3.org/2000/svg" viewBox="0 0 313.97 93.4">
    <defs>
        <style>
        .cls-1{fill:#0068b4;}
        .cls-2{fill:#1da958;}
        .cls-3{fill:#e71f61;}
        .cls-4{fill:#fcbd00;}
        </style>
    </defs>
    <title>Ресурс 1</title>
    <g id="Слой_2" data-name="Слой 2">
        <g id="Layer_1" data-name="Layer 1">
            <path class="cls-1" d="M60.05,86.67h-5v6.47H51.74v-16h3.32v6.54h5V77.13h3.32v16H60.05Z"/>
            <path class="cls-1" d="M89.47,85.19a8.22,8.22,0,1,1-8.22-8.27A8,8,0,0,1,89.47,85.19Zm-8.23,5.24c2.44,0,4.9-1.6,4.9-5.24s-2.48-5.33-4.92-5.31a4.91,4.91,0,0,0-4.87,5.31C76.35,88.77,78.83,90.43,81.24,90.43Z"/>
            <path class="cls-1" d="M107.64,84.64a4,4,0,0,1,2.48,3.64c0,3.49-2.73,4.85-5.63,4.85H99.3v-16h5.24c2.76,0,4.94,1.6,4.94,4.51a3.3,3.3,0,0,1-1.84,3Zm-3.1-1.29a1.76,1.76,0,1,0,0-3.51h-2v3.51Zm-2,2.77v4.12h2c3.3,0,3.16-4.12,0-4.12Z"/>
            <path class="cls-1" d="M135.26,85.19A8.22,8.22,0,1,1,127,76.92,8,8,0,0,1,135.26,85.19ZM127,90.43c2.44,0,4.9-1.6,4.9-5.24s-2.48-5.33-4.92-5.31a4.91,4.91,0,0,0-4.87,5.31A4.82,4.82,0,0,0,127,90.43Z"/>
            <path class="cls-1" d="M156.14,81.7A5.44,5.44,0,0,0,152,79.86c-3.19.07-4.92,2.55-4.92,5.35s1.75,5.19,4.92,5.19a5.71,5.71,0,0,0,4.35-2.12L158.63,90A8.17,8.17,0,0,1,152,93.4c-5.31,0-8.15-3.92-8.15-8.2s2.84-8.36,8.15-8.36a7.75,7.75,0,0,1,6.24,3Z"/>
            <path class="cls-1" d="M177.11,77.2V80h-3.58V93.15h-3.32V80h-3.6V77.2Z"/>
            <path class="cls-1" d="M189.24,93.14H186v-16h5.13a5.32,5.32,0,0,1,5.65,5.42,5.23,5.23,0,0,1-5.63,5.33h-1.91v5.26Zm4.26-10.59A2.48,2.48,0,0,0,191.13,80h-1.89v5h1.89A2.41,2.41,0,0,0,193.5,82.55Z"/>
            <path class="cls-1" d="M221.37,85.19a8.22,8.22,0,1,1-8.22-8.27A8,8,0,0,1,221.37,85.19Zm-8.22,5.24c2.44,0,4.9-1.6,4.9-5.24s-2.48-5.33-4.92-5.31a4.91,4.91,0,0,0-4.87,5.31A4.82,4.82,0,0,0,213.15,90.43Z"/>
            <path class="cls-1" d="M240.24,80h-6.13v3.65h6v2.94h-6v3.58h6.13v2.94H230.9V77.18h9.34Z"/>
            <path class="cls-1" d="M252.94,77.2v6.31l5.45-6.31h3.94l-6.06,7.1,6.1,8.84h-3.82l-4.71-6.74-.89.89v5.85h-3.3V77.2Z"/>
            <rect class="cls-2" x="90.61" y="11.06" width="15.8" height="42.82"/>
            <rect class="cls-3" x="204.51" y="0.69" width="15.8" height="53.21"/>
            <rect class="cls-4" x="90.61" y="0.67" width="50.89" height="10.39"/>
            <path class="cls-3" d="M124,18.78A17.55,17.55,0,1,0,141.5,36.33,17.55,17.55,0,0,0,124,18.78Z"/>
            <polygon class="cls-4" points="199.73 0.67 187.8 0.67 157 53.88 168.94 53.88 199.73 0.67"/>
            <path class="cls-1" d="M73,27.26A14.93,14.93,0,0,0,64.59,0V54.54A14.94,14.94,0,0,0,73,27.26Z"/>
            <polygon class="cls-2" points="28.52 0.67 57.05 53.93 0 53.93 28.52 0.67"/>
            <polygon class="cls-1" points="220.3 27.3 250.36 0.69 250.36 53.93 220.3 27.3"/>
            <polygon class="cls-2" points="148.25 0.67 169.92 31.47 187.72 0.67 148.25 0.67"/>
            <polygon class="cls-2" points="285.45 0.67 313.97 53.93 256.93 53.93 285.45 0.67"/>
        </g>
    </g>
</svg>